<svg id="SvgjsSvg1001" width="1434.00390625" height="807.2343826293945" xmlns="http://www.w3.org/2000/svg" version="1.1" xmlns:xlink="http://www.w3.org/1999/xlink" xmlns:svgjs="http://svgjs.com/svgjs"><defs id="SvgjsDefs1002"><pattern id="SvgjsPattern1014" x="0" y="0" width="100" height="100" patternUnits="userSpaceOnUse"><image id="SvgjsImage1015" xlink:href="https://iconsapi.com/5ee26513e4b0b788a9330a65.svg" width="100" height="100" preserveAspectRatio="none" crossOrigin="anonymous" x="0" y="0"></image></pattern><pattern id="SvgjsPattern1018" x="0" y="0" width="100" height="100" patternUnits="userSpaceOnUse"><image id="SvgjsImage1019" xlink:href="https://iconsapi.com/5ee26514e4b0b788a9330a84.svg" width="100" height="100" preserveAspectRatio="none" crossOrigin="anonymous" x="0" y="0"></image></pattern><pattern id="SvgjsPattern1022" x="0" y="0" width="100" height="100" patternUnits="userSpaceOnUse"><image id="SvgjsImage1023" xlink:href="https://iconsapi.com/5ee26339e4b0b788a932b2e5.svg" width="100" height="100" preserveAspectRatio="none" crossOrigin="anonymous" x="0" y="0"></image></pattern><pattern id="SvgjsPattern1026" x="0" y="0" width="100" height="100" patternUnits="userSpaceOnUse"><image id="SvgjsImage1027" xlink:href="https://iconsapi.com/5ee26339e4b0b788a932b2e5.svg" width="100" height="100" preserveAspectRatio="none" crossOrigin="anonymous" x="0" y="0"></image></pattern><pattern id="SvgjsPattern1030" x="0" y="0" width="100" height="100" patternUnits="userSpaceOnUse"><image id="SvgjsImage1031" xlink:href="https://iconsapi.com/5eed931ee4b0b8982239fd1f.svg" width="100" height="100" preserveAspectRatio="none" crossOrigin="anonymous" x="0" y="0"></image></pattern><pattern id="SvgjsPattern1034" x="0" y="0" width="100" height="100" patternUnits="userSpaceOnUse"><image id="SvgjsImage1035" xlink:href="https://iconsapi.com/5ee26339e4b0b788a932b2e5.svg" width="100" height="100" preserveAspectRatio="none" crossOrigin="anonymous" x="0" y="0"></image></pattern><pattern id="SvgjsPattern1038" x="0" y="0" width="100" height="100" patternUnits="userSpaceOnUse"><image id="SvgjsImage1039" xlink:href="https://iconsapi.com/5ee26339e4b0b788a932b2e5.svg" width="100" height="100" preserveAspectRatio="none" crossOrigin="anonymous" x="0" y="0"></image></pattern><marker id="SvgjsMarker1042" markerWidth="14" markerHeight="10" refX="10" refY="5" viewBox="0 0 14 10" orient="auto" markerUnits="userSpaceOnUse" stroke-dasharray="0,0"><path id="SvgjsPath1043" d="M0,0 L14,5 L0,10 L0,0" fill="#323232" stroke="#323232" stroke-width="1"></path></marker><marker id="SvgjsMarker1050" markerWidth="14" markerHeight="10" refX="10" refY="5" viewBox="0 0 14 10" orient="auto" markerUnits="userSpaceOnUse" stroke-dasharray="0,0"><path id="SvgjsPath1051" d="M0,0 L14,5 L0,10 L0,0" fill="#323232" stroke="#323232" stroke-width="1"></path></marker><marker id="SvgjsMarker1058" markerWidth="14" markerHeight="10" refX="10" refY="5" viewBox="0 0 14 10" orient="auto" markerUnits="userSpaceOnUse" stroke-dasharray="0,0"><path id="SvgjsPath1059" d="M0,0 L14,5 L0,10 L0,0" fill="#323232" stroke="#323232" stroke-width="1"></path></marker><marker id="SvgjsMarker1066" markerWidth="14" markerHeight="10" refX="10" refY="5" viewBox="0 0 14 10" orient="auto" markerUnits="userSpaceOnUse" stroke-dasharray="0,0"><path id="SvgjsPath1067" d="M0,0 L14,5 L0,10 L0,0" fill="#323232" stroke="#323232" stroke-width="1"></path></marker><pattern id="SvgjsPattern1078" x="0" y="0" width="100" height="100" patternUnits="userSpaceOnUse"><image id="SvgjsImage1079" xlink:href="https://iconsapi.com/5ee26514e4b0b788a9330a84.svg" width="100" height="100" preserveAspectRatio="none" crossOrigin="anonymous" x="0" y="0"></image></pattern><pattern id="SvgjsPattern1082" x="0" y="0" width="100" height="100" patternUnits="userSpaceOnUse"><image id="SvgjsImage1083" xlink:href="https://iconsapi.com/5ee26339e4b0b788a932b2e5.svg" width="100" height="100" preserveAspectRatio="none" crossOrigin="anonymous" x="0" y="0"></image></pattern><pattern id="SvgjsPattern1086" x="0" y="0" width="100" height="100" patternUnits="userSpaceOnUse"><image id="SvgjsImage1087" xlink:href="https://iconsapi.com/5ee26339e4b0b788a932b2e5.svg" width="100" height="100" preserveAspectRatio="none" crossOrigin="anonymous" x="0" y="0"></image></pattern><pattern id="SvgjsPattern1090" x="0" y="0" width="100" height="100" patternUnits="userSpaceOnUse"><image id="SvgjsImage1091" xlink:href="https://iconsapi.com/5eed931ee4b0b8982239fd1f.svg" width="100" height="100" preserveAspectRatio="none" crossOrigin="anonymous" x="0" y="0"></image></pattern><pattern id="SvgjsPattern1094" x="0" y="0" width="100" height="100" patternUnits="userSpaceOnUse"><image id="SvgjsImage1095" xlink:href="https://iconsapi.com/5ee26339e4b0b788a932b2e5.svg" width="100" height="100" preserveAspectRatio="none" crossOrigin="anonymous" x="0" y="0"></image></pattern><pattern id="SvgjsPattern1098" x="0" y="0" width="100" height="100" patternUnits="userSpaceOnUse"><image id="SvgjsImage1099" xlink:href="https://iconsapi.com/5ee26339e4b0b788a932b2e5.svg" width="100" height="100" preserveAspectRatio="none" crossOrigin="anonymous" x="0" y="0"></image></pattern><marker id="SvgjsMarker1102" markerWidth="14" markerHeight="10" refX="10" refY="5" viewBox="0 0 14 10" orient="auto" markerUnits="userSpaceOnUse" stroke-dasharray="0,0"><path id="SvgjsPath1103" d="M0,0 L14,5 L0,10 L0,0" fill="#323232" stroke="#323232" stroke-width="1"></path></marker><marker id="SvgjsMarker1110" markerWidth="14" markerHeight="10" refX="10" refY="5" viewBox="0 0 14 10" orient="auto" markerUnits="userSpaceOnUse" stroke-dasharray="0,0"><path id="SvgjsPath1111" d="M0,0 L14,5 L0,10 L0,0" fill="#323232" stroke="#323232" stroke-width="1"></path></marker><marker id="SvgjsMarker1118" markerWidth="14" markerHeight="10" refX="10" refY="5" viewBox="0 0 14 10" orient="auto" markerUnits="userSpaceOnUse" stroke-dasharray="0,0"><path id="SvgjsPath1119" d="M0,0 L14,5 L0,10 L0,0" fill="#323232" stroke="#323232" stroke-width="1"></path></marker><marker id="SvgjsMarker1126" markerWidth="14" markerHeight="10" refX="10" refY="5" viewBox="0 0 14 10" orient="auto" markerUnits="userSpaceOnUse" stroke-dasharray="0,0"><path id="SvgjsPath1127" d="M0,0 L14,5 L0,10 L0,0" fill="#323232" stroke="#323232" stroke-width="1"></path></marker><marker id="SvgjsMarker1134" markerWidth="14" markerHeight="10" refX="10" refY="5" viewBox="0 0 14 10" orient="auto" markerUnits="userSpaceOnUse" stroke-dasharray="0,0"><path id="SvgjsPath1135" d="M0,0 L14,5 L0,10 L0,0" fill="#323232" stroke="#323232" stroke-width="1"></path></marker><marker id="SvgjsMarker1176" markerWidth="14" markerHeight="10" refX="10" refY="5" viewBox="0 0 14 10" orient="auto" markerUnits="userSpaceOnUse" stroke-dasharray="0,0"><path id="SvgjsPath1177" d="M0,0 L14,5 L0,10 L0,0" fill="#323232" stroke="#323232" stroke-width="1"></path></marker><pattern id="SvgjsPattern1184" x="0" y="0" width="100" height="100" patternUnits="userSpaceOnUse"><image id="SvgjsImage1185" xlink:href="https://iconsapi.com/5ee27a73e4b0b788a934c9b2.svg" width="100" height="100" preserveAspectRatio="none" crossOrigin="anonymous" x="0" y="0"></image></pattern><pattern id="SvgjsPattern1188" x="0" y="0" width="100" height="100" patternUnits="userSpaceOnUse"><image id="SvgjsImage1189" xlink:href="https://iconsapi.com/5ee26339e4b0b788a932b2e5.svg" width="100" height="100" preserveAspectRatio="none" crossOrigin="anonymous" x="0" y="0"></image></pattern><marker id="SvgjsMarker1192" markerWidth="14" markerHeight="10" refX="10" refY="5" viewBox="0 0 14 10" orient="auto" markerUnits="userSpaceOnUse" stroke-dasharray="0,0"><path id="SvgjsPath1193" d="M0,0 L14,5 L0,10 L0,0" fill="#323232" stroke="#323232" stroke-width="1"></path></marker><marker id="SvgjsMarker1202" markerWidth="14" markerHeight="10" refX="10" refY="5" viewBox="0 0 14 10" orient="auto" markerUnits="userSpaceOnUse" stroke-dasharray="0,0"><path id="SvgjsPath1203" d="M0,0 L14,5 L0,10 L0,0" fill="#323232" stroke="#323232" stroke-width="1"></path></marker></defs><g id="SvgjsG1008" transform="translate(216.0078125,429.74219512939453)"><path id="SvgjsPath1009" d="M 0 0L 518 0L 518 353L 0 353Z" stroke="rgba(138,138,138,1)" stroke-width="2" fill-opacity="1" fill="#ebebeb"></path><g id="SvgjsG1010"><text id="SvgjsText1011" font-family="微软雅黑" text-anchor="middle" font-size="13px" width="498px" fill="#000000" font-weight="700" align="middle" lineHeight="125%" anchor="middle" family="微软雅黑" size="13px" weight="700" font-style="" opacity="1" y="165.875" transform="rotate(0)"></text></g></g><g id="SvgjsG1012" transform="translate(568.0078125,60.74219512939453)"><path id="SvgjsPath1013" d="M 0 0L 100 0L 100 100L 0 100Z" stroke="none" fill="url(#SvgjsPattern1014)"></path></g><g id="SvgjsG1016" transform="translate(587.0078125,551.7421951293945)"><path id="SvgjsPath1017" d="M 0 0L 100 0L 100 100L 0 100Z" stroke="none" fill="url(#SvgjsPattern1018)"></path></g><g id="SvgjsG1020" transform="translate(411.0078125,490.74219512939453)"><path id="SvgjsPath1021" d="M 0 0L 100 0L 100 100L 0 100Z" stroke="none" fill="url(#SvgjsPattern1022)"></path></g><g id="SvgjsG1024" transform="translate(275.0078125,490.74219512939453)"><path id="SvgjsPath1025" d="M 0 0L 100 0L 100 100L 0 100Z" stroke="none" fill="url(#SvgjsPattern1026)"></path></g><g id="SvgjsG1028" transform="translate(418.0078125,330.74219512939453)"><path id="SvgjsPath1029" d="M 0 0L 100 0L 100 100L 0 100Z" stroke="none" fill="url(#SvgjsPattern1030)"></path></g><g id="SvgjsG1032" transform="translate(275.0078125,607.7421951293945)"><path id="SvgjsPath1033" d="M 0 0L 100 0L 100 100L 0 100Z" stroke="none" fill="url(#SvgjsPattern1034)"></path></g><g id="SvgjsG1036" transform="translate(411.0078125,607.7421951293945)"><path id="SvgjsPath1037" d="M 0 0L 100 0L 100 100L 0 100Z" stroke="none" fill="url(#SvgjsPattern1038)"></path></g><g id="SvgjsG1040"><path id="SvgjsPath1041" d="M512.0077259461417 540.7290383735242L549.0078125 540.2421951293945L549.0078125 601.2421951293945L583.4081240938899 601.6948308082615" stroke="#323232" stroke-width="2" fill="none" marker-end="url(#SvgjsMarker1042)"></path><rect id="SvgjsRect1044" width="52" height="16" x="523.0078125" y="561.4421951293946" fill="#ffffff"></rect><text id="SvgjsText1045" font-family="微软雅黑" text-anchor="middle" font-size="13px" width="52px" fill="#000000" font-weight="700" align="top" lineHeight="16px" anchor="middle" family="微软雅黑" size="13px" weight="700" font-style="" opacity="1" y="558.8171951293946" transform="rotate(0)"><tspan id="SvgjsTspan1046" dy="16" x="549.0078125"><tspan id="SvgjsTspan1047" style="text-decoration:;">参数获取</tspan></tspan></text></g><g id="SvgjsG1048"><path id="SvgjsPath1049" d="M512.0077259461417 657.7290383735242L549.0078125 657.2421951293945L549.0078125 601.2421951293945L583.4081240938899 601.6948308082615" stroke="#323232" stroke-width="2" fill="none" marker-end="url(#SvgjsMarker1050)"></path><rect id="SvgjsRect1052" width="52" height="16" x="523.0078125" y="622.5421951293945" fill="#ffffff"></rect><text id="SvgjsText1053" font-family="微软雅黑" text-anchor="middle" font-size="13px" width="52px" fill="#000000" font-weight="700" align="top" lineHeight="16px" anchor="middle" family="微软雅黑" size="13px" weight="700" font-style="" opacity="1" y="619.9171951293945" transform="rotate(0)"><tspan id="SvgjsTspan1054" dy="16" x="549.0078125"><tspan id="SvgjsTspan1055" style="text-decoration:;">参数获取</tspan></tspan></text></g><g id="SvgjsG1056"><path id="SvgjsPath1057" d="M325.0078125 489.74219512939453L325.0078125 460.24219512939453L637.0078125 460.24219512939453L637.0078125 548.1421951293945" stroke="#323232" stroke-width="2" fill="none" marker-end="url(#SvgjsMarker1058)"></path><rect id="SvgjsRect1060" width="52" height="16" x="484.20781250000005" y="452.24219512939453" fill="#ffffff"></rect><text id="SvgjsText1061" font-family="微软雅黑" text-anchor="middle" font-size="13px" width="52px" fill="#000000" font-weight="700" align="top" lineHeight="16px" anchor="middle" family="微软雅黑" size="13px" weight="700" font-style="" opacity="1" y="449.61719512939453" transform="rotate(0)"><tspan id="SvgjsTspan1062" dy="16" x="510.20781250000005"><tspan id="SvgjsTspan1063" style="text-decoration:;">参数获取</tspan></tspan></text></g><g id="SvgjsG1064"><path id="SvgjsPath1065" d="M325.0078125 708.7421951293945L325.0078125 737.2421951293945L637.0078125 737.2421951293945L637.0078125 655.3421951293946" stroke="#323232" stroke-width="2" fill="none" marker-end="url(#SvgjsMarker1066)"></path><rect id="SvgjsRect1068" width="52" height="16" x="481.70781249999993" y="729.2421951293945" fill="#ffffff"></rect><text id="SvgjsText1069" font-family="微软雅黑" text-anchor="middle" font-size="13px" width="52px" fill="#000000" font-weight="700" align="top" lineHeight="16px" anchor="middle" family="微软雅黑" size="13px" weight="700" font-style="" opacity="1" y="726.6171951293945" transform="rotate(0)"><tspan id="SvgjsTspan1070" dy="16" x="507.70781249999993"><tspan id="SvgjsTspan1071" style="text-decoration:;">参数获取</tspan></tspan></text></g><g id="SvgjsG1072" transform="translate(872.0078125,379.74219512939453)"><path id="SvgjsPath1073" d="M 0 0L 518 0L 518 353L 0 353Z" stroke="rgba(138,138,138,1)" stroke-width="2" fill-opacity="1" fill="#ebebeb"></path><g id="SvgjsG1074"><text id="SvgjsText1075" font-family="微软雅黑" text-anchor="middle" font-size="13px" width="498px" fill="#000000" font-weight="700" align="middle" lineHeight="125%" anchor="middle" family="微软雅黑" size="13px" weight="700" font-style="" opacity="1" y="165.875" transform="rotate(0)"></text></g></g><g id="SvgjsG1076" transform="translate(1243.0078125,501.74219512939453)"><path id="SvgjsPath1077" d="M 0 0L 100 0L 100 100L 0 100Z" stroke="none" fill="url(#SvgjsPattern1078)"></path></g><g id="SvgjsG1080" transform="translate(1070.0078125,440.74219512939453)"><path id="SvgjsPath1081" d="M 0 0L 100 0L 100 100L 0 100Z" stroke="none" fill="url(#SvgjsPattern1082)"></path></g><g id="SvgjsG1084" transform="translate(931.0078125,440.74219512939453)"><path id="SvgjsPath1085" d="M 0 0L 100 0L 100 100L 0 100Z" stroke="none" fill="url(#SvgjsPattern1086)"></path></g><g id="SvgjsG1088" transform="translate(1070.0078125,280.74219512939453)"><path id="SvgjsPath1089" d="M 0 0L 100 0L 100 100L 0 100Z" stroke="none" fill="url(#SvgjsPattern1090)"></path></g><g id="SvgjsG1092" transform="translate(931.0078125,557.7421951293945)"><path id="SvgjsPath1093" d="M 0 0L 100 0L 100 100L 0 100Z" stroke="none" fill="url(#SvgjsPattern1094)"></path></g><g id="SvgjsG1096" transform="translate(1070.0078125,557.7421951293945)"><path id="SvgjsPath1097" d="M 0 0L 100 0L 100 100L 0 100Z" stroke="none" fill="url(#SvgjsPattern1098)"></path></g><g id="SvgjsG1100"><path id="SvgjsPath1101" d="M1171.0078125 490.74219512939453L1205.0078125 490.74219512939453L1205.0078125 551.7421951293945L1239.4078125 551.7421951293945" stroke="#323232" stroke-width="2" fill="none" marker-end="url(#SvgjsMarker1102)"></path><rect id="SvgjsRect1104" width="52" height="16" x="1179.0078125" y="513.4421951293946" fill="#ffffff"></rect><text id="SvgjsText1105" font-family="微软雅黑" text-anchor="middle" font-size="13px" width="52px" fill="#000000" font-weight="700" align="top" lineHeight="16px" anchor="middle" family="微软雅黑" size="13px" weight="700" font-style="" opacity="1" y="510.8171951293946" transform="rotate(0)"><tspan id="SvgjsTspan1106" dy="16" x="1205.0078125"><tspan id="SvgjsTspan1107" style="text-decoration:;">参数获取</tspan></tspan></text></g><g id="SvgjsG1108"><path id="SvgjsPath1109" d="M1171.0078125 607.7421951293945L1205.0078125 607.7421951293945L1205.0078125 551.7421951293945L1239.4078125 551.7421951293945" stroke="#323232" stroke-width="2" fill="none" marker-end="url(#SvgjsMarker1110)"></path><rect id="SvgjsRect1112" width="52" height="16" x="1179.0078125" y="571.5421951293945" fill="#ffffff"></rect><text id="SvgjsText1113" font-family="微软雅黑" text-anchor="middle" font-size="13px" width="52px" fill="#000000" font-weight="700" align="top" lineHeight="16px" anchor="middle" family="微软雅黑" size="13px" weight="700" font-style="" opacity="1" y="568.9171951293945" transform="rotate(0)"><tspan id="SvgjsTspan1114" dy="16" x="1205.0078125"><tspan id="SvgjsTspan1115" style="text-decoration:;">参数获取</tspan></tspan></text></g><g id="SvgjsG1116"><path id="SvgjsPath1117" d="M981.0078125 439.74219512939453L981.0078125 418.74219512939453L1293.0078125 418.74219512939453L1293.0078125 498.1421951293945" stroke="#323232" stroke-width="2" fill="none" marker-end="url(#SvgjsMarker1118)"></path><rect id="SvgjsRect1120" width="52" height="16" x="1140.2078125" y="410.74219512939453" fill="#ffffff"></rect><text id="SvgjsText1121" font-family="微软雅黑" text-anchor="middle" font-size="13px" width="52px" fill="#000000" font-weight="700" align="top" lineHeight="16px" anchor="middle" family="微软雅黑" size="13px" weight="700" font-style="" opacity="1" y="408.11719512939453" transform="rotate(0)"><tspan id="SvgjsTspan1122" dy="16" x="1166.2078125"><tspan id="SvgjsTspan1123" style="text-decoration:;">参数获取</tspan></tspan></text></g><g id="SvgjsG1124"><path id="SvgjsPath1125" d="M981.0078125 658.7421951293945L981.0078125 687.7421951293945L1293.0078125 687.7421951293945L1293.0078125 605.3421951293946" stroke="#323232" stroke-width="2" fill="none" marker-end="url(#SvgjsMarker1126)"></path><rect id="SvgjsRect1128" width="52" height="16" x="1137.7078125" y="679.7421951293945" fill="#ffffff"></rect><text id="SvgjsText1129" font-family="微软雅黑" text-anchor="middle" font-size="13px" width="52px" fill="#000000" font-weight="700" align="top" lineHeight="16px" anchor="middle" family="微软雅黑" size="13px" weight="700" font-style="" opacity="1" y="677.1171951293945" transform="rotate(0)"><tspan id="SvgjsTspan1130" dy="16" x="1163.7078125"><tspan id="SvgjsTspan1131" style="text-decoration:;">参数获取</tspan></tspan></text></g><g id="SvgjsG1132"><path id="SvgjsPath1133" d="M1344.0078125 551.7421951293945L1381.0078125 551.7421951293945L1381.0078125 110.74219512939453L671.6078125 110.74219512939453" stroke="#323232" stroke-width="2" fill="none" marker-end="url(#SvgjsMarker1134)"></path><rect id="SvgjsRect1136" width="91" height="16" x="1219.8078125" y="102.74219512939453" fill="#ffffff"></rect><text id="SvgjsText1137" font-family="微软雅黑" text-anchor="middle" font-size="13px" width="91px" fill="#323232" font-weight="400" align="top" lineHeight="16px" anchor="middle" family="微软雅黑" size="13px" weight="400" font-style="" opacity="1" y="100.11719512939453" transform="rotate(0)"><tspan id="SvgjsTspan1138" dy="16" x="1265.3078125"><tspan id="SvgjsTspan1139" style="text-decoration:;">与云服务器连接</tspan></tspan></text></g><g id="SvgjsG1140" transform="translate(664.0078125,536.7421951293945)"><path id="SvgjsPath1141" d="M 0 0L 100 0L 100 40L 0 40Z" stroke="none" fill="none"></path><g id="SvgjsG1142"><text id="SvgjsText1143" font-family="微软雅黑" text-anchor="middle" font-size="13px" width="100px" fill="#000000" font-weight="700" align="middle" lineHeight="125%" anchor="middle" family="微软雅黑" size="13px" weight="700" font-style="" opacity="1" y="9.375" transform="rotate(0)"><tspan id="SvgjsTspan1144" dy="16" x="50"><tspan id="SvgjsTspan1145" style="text-decoration:;fill: rgb(231, 79, 76);">apollo_client进程</tspan></tspan></text></g></g><g id="SvgjsG1146" transform="translate(1309.0078125,476.74219512939453)"><path id="SvgjsPath1147" d="M 0 0L 100 0L 100 40L 0 40Z" stroke="none" fill="none"></path><g id="SvgjsG1148"><text id="SvgjsText1149" font-family="微软雅黑" text-anchor="middle" font-size="13px" width="100px" fill="#000000" font-weight="700" align="middle" lineHeight="125%" anchor="middle" family="微软雅黑" size="13px" weight="700" font-style="" opacity="1" y="9.375" transform="rotate(0)"><tspan id="SvgjsTspan1150" dy="16" x="50"><tspan id="SvgjsTspan1151" style="text-decoration:;fill: rgb(231, 79, 76);">apollo_client进程</tspan></tspan></text></g></g><g id="SvgjsG1152" transform="translate(235.0078125,585.7421951293945)"><path id="SvgjsPath1153" d="M 0 0L 100 0L 100 40L 0 40Z" stroke="none" fill="none"></path><g id="SvgjsG1154"><text id="SvgjsText1155" font-family="微软雅黑" text-anchor="middle" font-size="13px" width="100px" fill="#000000" font-weight="700" align="middle" lineHeight="125%" anchor="middle" family="微软雅黑" size="13px" weight="700" font-style="" opacity="1" y="0.875" transform="rotate(0)"><tspan id="SvgjsTspan1156" dy="16" x="50"><tspan id="SvgjsTspan1157" style="text-decoration:;">多个进程（需要</tspan></tspan><tspan id="SvgjsTspan1158" dy="16" x="50"><tspan id="SvgjsTspan1159" style="text-decoration:;">参数）</tspan></tspan></text></g></g><g id="SvgjsG1160" transform="translate(911.0078125,531.7421951293945)"><path id="SvgjsPath1161" d="M 0 0L 100 0L 100 40L 0 40Z" stroke="none" fill="none"></path><g id="SvgjsG1162"><text id="SvgjsText1163" font-family="微软雅黑" text-anchor="middle" font-size="13px" width="100px" fill="#000000" font-weight="700" align="middle" lineHeight="125%" anchor="middle" family="微软雅黑" size="13px" weight="700" font-style="" opacity="1" y="0.875" transform="rotate(0)"><tspan id="SvgjsTspan1164" dy="16" x="50"><tspan id="SvgjsTspan1165" style="text-decoration:;">多个进程（需要</tspan></tspan><tspan id="SvgjsTspan1166" dy="16" x="50"><tspan id="SvgjsTspan1167" style="text-decoration:;">参数）</tspan></tspan></text></g></g><g id="SvgjsG1168" transform="translate(664.0078125,47.74219512939453)"><path id="SvgjsPath1169" d="M 0 0L 100 0L 100 40L 0 40Z" stroke="none" fill="none"></path><g id="SvgjsG1170"><text id="SvgjsText1171" font-family="微软雅黑" text-anchor="middle" font-size="13px" width="100px" fill="#323232" font-weight="400" align="middle" lineHeight="125%" anchor="middle" family="微软雅黑" size="13px" weight="400" font-style="" opacity="1" y="9.375" transform="rotate(0)"><tspan id="SvgjsTspan1172" dy="16" x="50"><tspan id="SvgjsTspan1173" style="text-decoration:;fill: rgb(162, 55, 53);font-weight: bold;">apollo云服务器</tspan></tspan></text></g></g><g id="SvgjsG1174"><path id="SvgjsPath1175" d="M688.0078125 601.7421951293945L717.0078125 601.7421951293945L717.0078125 190.74219512939453L618.0078125 190.74219512939453L618.0078125 164.34219512939453" stroke="#323232" stroke-width="2" fill="none" marker-end="url(#SvgjsMarker1176)"></path><rect id="SvgjsRect1178" width="91" height="16" x="671.5078125" y="340.0421951293946" fill="#ffffff"></rect><text id="SvgjsText1179" font-family="微软雅黑" text-anchor="middle" font-size="13px" width="91px" fill="#323232" font-weight="400" align="top" lineHeight="16px" anchor="middle" family="微软雅黑" size="13px" weight="400" font-style="" opacity="1" y="337.4171951293946" transform="rotate(0)"><tspan id="SvgjsTspan1180" dy="16" x="717.0078125"><tspan id="SvgjsTspan1181" style="text-decoration:;">与云服务器交互</tspan></tspan></text></g><g id="SvgjsG1182" transform="translate(25.0078125,87.74219512939453)"><path id="SvgjsPath1183" d="M 0 0L 100 0L 100 100L 0 100Z" stroke="none" fill="url(#SvgjsPattern1184)"></path></g><g id="SvgjsG1186" transform="translate(25.0078125,230.74219512939453)"><path id="SvgjsPath1187" d="M 0 0L 100 0L 100 100L 0 100Z" stroke="none" fill="url(#SvgjsPattern1188)"></path></g><g id="SvgjsG1190"><path id="SvgjsPath1191" d="M126.0078125 137.74219512939453L155.2578125 137.74219512939453L155.2578125 30.74219512939453L618.0078125 30.74219512939453L618.0078125 57.14219512939454" stroke="#323232" stroke-width="2" fill="none" marker-end="url(#SvgjsMarker1192)"></path><rect id="SvgjsRect1194" width="114" height="32" x="274.70781250000005" y="14.742195129394531" fill="#ffffff"></rect><text id="SvgjsText1195" font-family="微软雅黑" text-anchor="middle" font-size="13px" width="114px" fill="#e855a4" font-weight="700" align="top" lineHeight="16px" anchor="middle" family="微软雅黑" size="13px" weight="700" font-style="" opacity="1" y="12.117195129394531" transform="rotate(0)"><tspan id="SvgjsTspan1196" dy="16" x="331.70781250000005"><tspan id="SvgjsTspan1197" style="text-decoration:;">portal web界面访问</tspan></tspan><tspan id="SvgjsTspan1198" dy="16" x="331.70781250000005"><tspan id="SvgjsTspan1199" style="text-decoration:;">http://localhost:8070</tspan></tspan></text></g><g id="SvgjsG1200"><path id="SvgjsPath1201" d="M126.0078125 280.74219512939453L346.5078125 280.74219512939453L346.5078125 110.74219512939453L564.4078125 110.74219512939453" stroke="#323232" stroke-width="2" fill="none" marker-end="url(#SvgjsMarker1202)"></path><rect id="SvgjsRect1204" width="165" height="16" x="264.0078125" y="189.04219512939454" fill="#ffffff"></rect><text id="SvgjsText1205" font-family="微软雅黑" text-anchor="middle" font-size="13px" width="165px" fill="#e74f4c" font-weight="700" align="top" lineHeight="16px" anchor="middle" family="微软雅黑" size="13px" weight="700" font-style="" opacity="1" y="186.41719512939454" transform="rotate(0)"><tspan id="SvgjsTspan1206" dy="16" x="346.5078125"><tspan id="SvgjsTspan1207" style="text-decoration:;">使用开放平台的API控制参数</tspan></tspan></text></g><g id="SvgjsG1208" transform="translate(419.0078125,301.74219512939453)"><path id="SvgjsPath1209" d="M 0 0L 100 0L 100 40L 0 40Z" stroke="none" fill="none"></path><g id="SvgjsG1210"><text id="SvgjsText1211" font-family="微软雅黑" text-anchor="middle" font-size="13px" width="100px" fill="#323232" font-weight="400" align="middle" lineHeight="125%" anchor="middle" family="微软雅黑" size="13px" weight="400" font-style="" opacity="1" y="9.375" transform="rotate(0)"><tspan id="SvgjsTspan1212" dy="16" x="50"><tspan id="SvgjsTspan1213" style="text-decoration:;font-weight: bold;fill: rgb(231, 79, 76);">车辆A</tspan></tspan></text></g></g><g id="SvgjsG1214" transform="translate(1070.0078125,253.74219512939453)"><path id="SvgjsPath1215" d="M 0 0L 100 0L 100 40L 0 40Z" stroke="none" fill="none"></path><g id="SvgjsG1216"><text id="SvgjsText1217" font-family="微软雅黑" text-anchor="middle" font-size="13px" width="100px" fill="#323232" font-weight="400" align="middle" lineHeight="125%" anchor="middle" family="微软雅黑" size="13px" weight="400" font-style="" opacity="1" y="9.375" transform="rotate(0)"><tspan id="SvgjsTspan1218" dy="16" x="50"><tspan id="SvgjsTspan1219" style="text-decoration:;font-weight: bold;fill: rgb(231, 79, 76);">车辆B</tspan></tspan></text></g></g></svg>